<svg xmlns="http://www.w3.org/2000/svg" viewBox="0 0 197.77 104.79"><defs><style>.cls-1{fill:#fff;}</style></defs><title>logo_branco</title><g id="Camada_2" data-name="Camada 2"><g id="Layer_1" data-name="Layer 1"><path class="cls-1" d="M53.71,40V14.22L34.62,39.15a4.61,4.61,0,0,1-3.84,1.66,4.61,4.61,0,0,1-3.84-1.66l-19-24.93V40H0V3.55A3,3,0,0,1,1.35.86,6.11,6.11,0,0,1,4.7,0,5.81,5.81,0,0,1,7.16.43a4.54,4.54,0,0,1,1.67,1.4L30.9,31.12,53.14,1.83A4.81,4.81,0,0,1,54.71.43,5.1,5.1,0,0,1,57,0a6.17,6.17,0,0,1,3.36.86,3,3,0,0,1,1.34,2.69V40Z"/><path class="cls-1" d="M77.09,28.77V40H68.38V.86h31.3a31.15,31.15,0,0,1,7,.66A10.32,10.32,0,0,1,111.2,3.7a8.23,8.23,0,0,1,2.44,3.92,21.08,21.08,0,0,1,.71,5.85v3.38a20.47,20.47,0,0,1-.69,5.79,7.28,7.28,0,0,1-2.37,3.67,10,10,0,0,1-4.5,1.92,38.82,38.82,0,0,1-7.11.54Zm28.55-15q0-3.15-1.35-4.29T99.45,8.37H77.09V21.72H99.56c2.3,0,3.88-.35,4.76-1.06s1.32-2.09,1.32-4.15Z"/><path class="cls-1" d="M151.27,40,128.39,25.74V40h-8.65V.86h30.61a40.64,40.64,0,0,1,7.05.52,11.61,11.61,0,0,1,4.78,1.83,7.54,7.54,0,0,1,2.73,3.61,16.75,16.75,0,0,1,.86,5.79V15.3a14.67,14.67,0,0,1-.92,5.59,7.65,7.65,0,0,1-2.84,3.5,12.58,12.58,0,0,1-4.84,1.81,41,41,0,0,1-6.94.51h-6.87L166.28,40Zm5.78-26.88a7.71,7.71,0,0,0-.34-2.52,2.8,2.8,0,0,0-1.15-1.49,5.15,5.15,0,0,0-2.23-.69,29.61,29.61,0,0,0-3.56-.17H128.39V20.12h21.38A31,31,0,0,0,153.3,20a5.69,5.69,0,0,0,2.24-.69,2.78,2.78,0,0,0,1.17-1.49,7.93,7.93,0,0,0,.34-2.58Z"/><path class="cls-1" d="M169.44,40V32.5h9.45a14.38,14.38,0,0,0,3.47-.34A4.52,4.52,0,0,0,184.48,31a4.26,4.26,0,0,0,1.09-2,11.67,11.67,0,0,0,.32-2.92V.86h8.71V26.54a23.48,23.48,0,0,1-.72,6.28,8.64,8.64,0,0,1-2.43,4.12,10.47,10.47,0,0,1-4.62,2.3,31.28,31.28,0,0,1-7.25.71Z"/><path class="cls-1" d="M1.62,73.56a2.37,2.37,0,0,1-.84-1.15,8.7,8.7,0,0,1-.44-1.58,10,10,0,0,1-.13-1.46v-.93A4.86,4.86,0,0,0,2.9,69.72,17.93,17.93,0,0,0,6.12,70a14.39,14.39,0,0,0,1.77-.09,2.66,2.66,0,0,0,.61-.09,33.42,33.42,0,0,1,4.59-6.79A31.33,31.33,0,0,1,18.74,58a26,26,0,0,1,6.17-3.18,18.94,18.94,0,0,1,6.18-1.1,16.45,16.45,0,0,1,7.15,1.37q2.82,1.37,3,3.39a1.17,1.17,0,0,1-.09.53l-.36-.17.27.17a41.13,41.13,0,0,0-2.78,5.34A25.58,25.58,0,0,0,37,68.13a20.2,20.2,0,0,0-.44,2.43,2.08,2.08,0,0,1-.35,1.15L36,71.8a7,7,0,0,1-3.18-.93,5.21,5.21,0,0,1-1.67-1.63,5.66,5.66,0,0,1-.8-2.3,13,13,0,0,1,.53-2.56,20.6,20.6,0,0,1,2.21-4.76,8.92,8.92,0,0,0-2.21-.26,13,13,0,0,0-4.36.79,22.82,22.82,0,0,0-4.5,2.21,30.44,30.44,0,0,0-4.37,3.35,32.45,32.45,0,0,0-3.88,4.23q2.73.27,5.69.75t5.47,1c1.67.33,3.07.59,4.19.8s1.7.31,1.76.31H31a.82.82,0,0,1,.18.61.58.58,0,0,1-.27.53l-.09.09h-.61c-.41.06-1.3.1-2.65.13l-4.76.09L17,74.31c-2.06,0-4,0-5.82,0a25.24,25.24,0,0,0-1.68,4.37,17.2,17.2,0,0,0-.61,4.55A15.43,15.43,0,0,0,11,91a10.87,10.87,0,0,0,3.22,1.63,11.45,11.45,0,0,0,3.22.49,12.59,12.59,0,0,0,4.37-.8,24.76,24.76,0,0,0,4-1.89,24.44,24.44,0,0,0,3.35-2.39c1-.85,1.85-1.63,2.56-2.33a24.68,24.68,0,0,0,3.66-4.37,13.76,13.76,0,0,0,1.32-2.74A5.59,5.59,0,0,0,37,77.18c0-.3.21-.44.62-.44a.37.37,0,0,1,.35.17.8.8,0,0,1,.09.36,7.69,7.69,0,0,1-.53,2.11,21.92,21.92,0,0,1-1.63,3.44A30.63,30.63,0,0,1,33,87a29.46,29.46,0,0,1-4.37,4.24,35.88,35.88,0,0,1-5.21,3.26,14.65,14.65,0,0,1-7,1.68A11.11,11.11,0,0,1,8,92.66a12.8,12.8,0,0,1-3.31-9.22,20.84,20.84,0,0,1,.53-4.67,34.81,34.81,0,0,1,1.32-4.42,22.13,22.13,0,0,1-3.83-.22Q1.62,73.92,1.62,73.56Z"/><path class="cls-1" d="M52.62,90a3.42,3.42,0,0,1-1.46,1.72,3.26,3.26,0,0,1-1.1.31,2.87,2.87,0,0,1-2.87-1.59,10,10,0,0,1-.75-4.23,22.38,22.38,0,0,1,.35-3.84,32.19,32.19,0,0,1,1-3.93l-3,6.53q-1.5,3.27-2.29,4.94a2.93,2.93,0,0,1-1.37,1.63,3.26,3.26,0,0,1-1.19.4,2.86,2.86,0,0,1-2.78-1.41,9.06,9.06,0,0,1-.75-4.15,25.53,25.53,0,0,1,.93-6.75,46.74,46.74,0,0,1,2.12-6.17q1.18-2.78,2.16-4.55a6.14,6.14,0,0,1,1.14-1.76,4.46,4.46,0,0,1,1.59.35c.59.24,1.18.5,1.77.8a21.09,21.09,0,0,1,2,1.06c-.47.94-1.14,2.13-2,3.57s-1.69,3-2.51,4.63a53.29,53.29,0,0,0-2.21,5,13.42,13.42,0,0,0-1,4.76q4.14-7.57,7-12a42.24,42.24,0,0,1,3.88-5.47H51.2c.36-.58.68-1.17,1-1.76a9.1,9.1,0,0,0,.74-1.46c.21-.49.37-.89.49-1.19a4,4,0,0,1,.75.4,8.61,8.61,0,0,1,1.37,1.06,14.68,14.68,0,0,1,1.32,1.41,2.43,2.43,0,0,1,.62,1.54,5,5,0,0,1-.09.93,6.72,6.72,0,0,1-.79,1.72H56.5c-.53,1-1.14,2.09-1.81,3.27s-1.32,2.39-1.94,3.66a26.37,26.37,0,0,0-1.55,4,14.06,14.06,0,0,0-.61,4q3.7-6.7,6.13-10.28t4-5.55c1-1.33,1.82-2.37,2.38-3.14a8.33,8.33,0,0,0,1.28-3,13.94,13.94,0,0,1,2,1.42,11.34,11.34,0,0,1,1.32,1.36,2.35,2.35,0,0,1,.62,1.46v.7a4.08,4.08,0,0,1-.09.8c-.47.94-1.07,2.06-1.81,3.35S65,77.18,64.26,78.59a36.78,36.78,0,0,0-1.81,4.28A12.52,12.52,0,0,0,61.7,87a5.4,5.4,0,0,0,.22,1.63.9.9,0,0,0,.93.66q1.23,0,3.09-1.8a19,19,0,0,0,3.62-5.87l.17-.09a.84.84,0,0,1,.62.27l.18.17A14.12,14.12,0,0,1,70,83.71a19.2,19.2,0,0,1-1.67,3.39,16.82,16.82,0,0,1-2.65,3.31,4.88,4.88,0,0,1-3.49,1.5A4.17,4.17,0,0,1,59,90.23a7,7,0,0,1-1.45-4.76,19.2,19.2,0,0,1,.7-4.94q.7-2.64,1.59-5l-2.16,3.93c-.8,1.44-1.54,2.85-2.25,4.23s-1.32,2.65-1.85,3.8A13.51,13.51,0,0,0,52.62,90Z"/><path class="cls-1" d="M120.81,57.24a3.58,3.58,0,0,1,0,2.43,14.7,14.7,0,0,1-1.11,2.69l-1.32,3c-.59,1.32-1.23,2.82-1.94,4.5s-1.44,3.47-2.21,5.38S112.8,79,112.12,80.8s-1.29,3.54-1.85,5.16-1,3-1.28,4c0,.06-.15.6-.44,1.63a16.06,16.06,0,0,0-.44,4.28,3.29,3.29,0,0,1-.75-.18,6,6,0,0,1-1.28-.57,4,4,0,0,1-1.24-1.1,3.19,3.19,0,0,1-.53-1.94,18.8,18.8,0,0,1,.62-3.84c.41-1.73,1-3.84,1.68-6.31-1.59,1.59-3.09,3.1-4.5,4.55s-2.63,2.67-3.66,3.7S96.58,92,95.93,92.57s-1,.78-1.06.66l-.08.09c-.06,0-.09,0-.09,0s0,0-.09,0a.36.36,0,0,1-.26.09q-.54,0-1-1.89a44.41,44.41,0,0,1-.88-4.77c-.27-1.91-.47-4-.62-6.35s-.22-4.54-.22-6.66c-1.06,2.29-2.1,4.59-3.13,6.88s-1.78,4.06-2.25,5.29a13.88,13.88,0,0,0-.62,1.68A9.27,9.27,0,0,0,85,90.68a4.72,4.72,0,0,0,.18,1,3.08,3.08,0,0,1-.75-.17A5.87,5.87,0,0,1,83.18,91,3.45,3.45,0,0,1,82,89.84a3.55,3.55,0,0,1-.49-2,24.39,24.39,0,0,1,1.24-7q1.23-4,2.78-7.89t3-6.84l1.86-4L91,60.33c.18-.53.34-1.06.49-1.59a5.45,5.45,0,0,0,.22-1.32,2,2,0,0,0,1.23.61,5.62,5.62,0,0,1,1.81.75,4.69,4.69,0,0,1,1.59,1.77A7.55,7.55,0,0,1,97,64.12a39.28,39.28,0,0,1-.39,5.38c-.27,1.89-.56,3.75-.89,5.6s-.61,3.7-.88,5.52a37,37,0,0,0-.4,5.2c0,1.3,0,2.44.14,3.44s.19,1.83.3,2.47L97,89.35q1.36-1.5,2.95-3.48c1.06-1.33,2.15-2.78,3.27-4.37a48.56,48.56,0,0,0,3.08-5q1.5-2.55,2.78-5.12c.85-1.7,1.64-3.32,2.34-4.85s1.34-2.94,1.9-4.23l1.45-3.35.62-1.86a18.94,18.94,0,0,0,.71-2.91l2,.88c.53.3,1,.62,1.58,1A2.62,2.62,0,0,1,120.81,57.24Z"/><path class="cls-1" d="M140.22,81.94l-.66,1.9a19,19,0,0,1-1.63,3.4,16.4,16.4,0,0,1-2.56,3.22,4.8,4.8,0,0,1-3.44,1.45,3.86,3.86,0,0,1-2.16-.66,6.54,6.54,0,0,1-2-2.78l-.84,1.06a6,6,0,0,1-1.23,1.15,7.09,7.09,0,0,1-1.81.88,8.33,8.33,0,0,1-2.56.35,5.31,5.31,0,0,1-3.31-1,6.83,6.83,0,0,1-2-2.34,9.78,9.78,0,0,1-1-2.91,15.59,15.59,0,0,1-.27-2.6,14.41,14.41,0,0,1,.93-4.81,18.48,18.48,0,0,1,2.6-4.85,15,15,0,0,1,4.06-3.75,9.73,9.73,0,0,1,5.29-1.5,6.22,6.22,0,0,1,2.65.44c.59.29,1.2.62,1.85,1,.18-.35.34-.71.49-1.06a7.38,7.38,0,0,0,.31-.88,3.23,3.23,0,0,1,.7.4,12,12,0,0,1,2.74,2.51,2.51,2.51,0,0,1,.62,1.5,4.84,4.84,0,0,1-.18,1.15,5.12,5.12,0,0,1-.88,1.67Q134.4,77.72,132.9,81a14.54,14.54,0,0,0-1.5,6,5.06,5.06,0,0,0,.22,1.68,1,1,0,0,0,1,.61c.77,0,1.78-.6,3.05-1.8a18.47,18.47,0,0,0,3.66-5.87l.18-.09c.35,0,.55.09.61.27S140.22,82,140.22,81.94Zm-12.79,5.12a4,4,0,0,1-.09-.8v-.79a21,21,0,0,1,.75-5.38,47.57,47.57,0,0,1,1.72-5.29,8.4,8.4,0,0,0-1.23-1.06,2.88,2.88,0,0,0-1.59-.36,6.12,6.12,0,0,0-3.18,1,12.26,12.26,0,0,0-2.91,2.52,14.06,14.06,0,0,0-2.16,3.44,9.41,9.41,0,0,0-.84,3.84,14.05,14.05,0,0,0,.13,1.94,5.78,5.78,0,0,0,.58,1.85,3.32,3.32,0,0,0,1.32,1.41,4.54,4.54,0,0,0,2.38.53,4.66,4.66,0,0,0,3.31-1.1C126.41,88,127,87.47,127.43,87.06Z"/><path class="cls-1" d="M151.69,84.15a29.12,29.12,0,0,0,1.76-4.85,16.16,16.16,0,0,0,.45-5.12A30.07,30.07,0,0,0,149,75.59a9.22,9.22,0,0,0-2.51,1.46,4.72,4.72,0,0,0-1.15,1.41,8.83,8.83,0,0,1-.66,1.19c-1.71,3.41-3.26,6.63-4.68,9.66s-2.64,5.69-3.7,8-2.21,4.8-3.44,7.5a.37.37,0,0,1-.27-.09,1.38,1.38,0,0,1-.22-.13l-.13-.13-.09-.09c.06-.35.24-1.1.53-2.25s.68-2.53,1.15-4.15,1-3.39,1.59-5.33,1.19-3.93,1.81-6,1.22-4,1.8-5.86,1.15-3.59,1.68-5.12c.12-.36.32-.94.62-1.77s.62-1.69,1-2.6.66-1.79.92-2.65.46-1.51.58-2a3.2,3.2,0,0,1,.88.31,8.06,8.06,0,0,1,1.5.88,9.08,9.08,0,0,1,1.46,1.32,3.42,3.42,0,0,1,.83,1.55c.18-.12.8-.44,1.86-1a7.57,7.57,0,0,1,3.44-.8c2,0,3.32.64,4,1.9a8.52,8.52,0,0,1,.79,4.5,20,20,0,0,1-1.1,5.25c-.62,1.76-1.16,3.15-1.63,4.14,1.47.3,2.58.55,3.35.75s1.32.37,1.68.49a1.38,1.38,0,0,1,.61.31.42.42,0,0,1,.09.22c0,.35-.15.53-.44.53a13.69,13.69,0,0,1-2.16-.35,27.8,27.8,0,0,0-3.93-.53,11.62,11.62,0,0,1-3.88,4.41,9.25,9.25,0,0,1-5.29,1.76,4.4,4.4,0,0,1-3.31-1.06,3.25,3.25,0,0,1-1-2.29,3.76,3.76,0,0,1,1-2.69,6,6,0,0,1,2.3-1.5,11,11,0,0,1,2.73-.62c.94-.09,1.74-.13,2.39-.13h.88A4.46,4.46,0,0,1,151.69,84.15Zm-2.56,3.53a2.41,2.41,0,0,0,.75-.71c.21-.29.46-.62.75-1a10.77,10.77,0,0,0-2.16.22,13.54,13.54,0,0,0-2,.57,5.27,5.27,0,0,0-1.5.84,1.37,1.37,0,0,0-.57,1v.17c.06.18.32.27.79.27a8.22,8.22,0,0,0,1.9-.27A4.75,4.75,0,0,0,149.13,87.68Z"/><path class="cls-1" d="M183.89,81.94l-.66,1.9a19,19,0,0,1-1.63,3.4A16.4,16.4,0,0,1,179,90.46a4.8,4.8,0,0,1-3.44,1.45,3.86,3.86,0,0,1-2.16-.66,6.54,6.54,0,0,1-2-2.78l-.84,1.06a6,6,0,0,1-1.23,1.15,7.09,7.09,0,0,1-1.81.88,8.33,8.33,0,0,1-2.56.35,5.31,5.31,0,0,1-3.31-1,6.83,6.83,0,0,1-2-2.34,9.78,9.78,0,0,1-1-2.91,15.59,15.59,0,0,1-.27-2.6,14.41,14.41,0,0,1,.93-4.81,18.48,18.48,0,0,1,2.6-4.85,15,15,0,0,1,4.06-3.75,9.73,9.73,0,0,1,5.29-1.5,6.22,6.22,0,0,1,2.65.44c.59.29,1.2.62,1.85,1,.18-.35.34-.71.49-1.06a7.38,7.38,0,0,0,.31-.88,3.23,3.23,0,0,1,.7.4,10.46,10.46,0,0,1,1.37,1.06,11.08,11.08,0,0,1,1.37,1.45,2.49,2.49,0,0,1,.61,1.5,4.75,4.75,0,0,1-.17,1.15,5.12,5.12,0,0,1-.88,1.67q-1.59,2.84-3.09,6.09a14.54,14.54,0,0,0-1.5,6,5.06,5.06,0,0,0,.22,1.68.94.94,0,0,0,1,.61c.77,0,1.78-.6,3-1.8A18.47,18.47,0,0,0,183,81.59l.17-.09c.36,0,.56.09.62.27S183.89,82,183.89,81.94ZM171.1,87.06a4,4,0,0,1-.09-.8v-.79a21,21,0,0,1,.75-5.38,47.57,47.57,0,0,1,1.72-5.29,8.4,8.4,0,0,0-1.23-1.06,2.88,2.88,0,0,0-1.59-.36,6.12,6.12,0,0,0-3.18,1,12.26,12.26,0,0,0-2.91,2.52,14.06,14.06,0,0,0-2.16,3.44,9.41,9.41,0,0,0-.84,3.84,14.05,14.05,0,0,0,.13,1.94,5.78,5.78,0,0,0,.58,1.85,3.32,3.32,0,0,0,1.32,1.41,4.54,4.54,0,0,0,2.38.53,4.66,4.66,0,0,0,3.31-1.1C170.08,88,170.69,87.47,171.1,87.06Z"/><path class="cls-1" d="M195.54,69.24a3.25,3.25,0,0,1,0,.88,2,2,0,0,1-.13.62,24.29,24.29,0,0,0,1,5.29,45,45,0,0,1,1.32,7.24,7.21,7.21,0,0,1-.66,3.88A8.26,8.26,0,0,1,194.79,90a10.73,10.73,0,0,1-3.31,1.76,11.2,11.2,0,0,1-3.62.62,8.38,8.38,0,0,1-3.48-.66A7.73,7.73,0,0,1,182,90a7,7,0,0,1-1.46-2.2,6.08,6.08,0,0,1-.48-2.25,4.21,4.21,0,0,1,.66-2.34,2.61,2.61,0,0,1,1.9-1.19c.53-.88,1.11-1.91,1.76-3.09l2-3.57c.67-1.21,1.3-2.37,1.89-3.49s1.12-2,1.59-2.82a8.84,8.84,0,0,0,.4-1c.14-.41.28-.81.4-1.19a4.3,4.3,0,0,1,.44-1c.17-.29.35-.44.53-.44.64.42,1.26.83,1.85,1.24a9.86,9.86,0,0,1,1.32,1.19A3.2,3.2,0,0,1,195.54,69.24Zm-8.3,19.85a6.44,6.44,0,0,0,2.08-.35,7.22,7.22,0,0,0,1.89-1,4.92,4.92,0,0,0,1.41-1.63,4.28,4.28,0,0,0,.53-2.12,9.48,9.48,0,0,0-.39-2.47c-.27-.94-.58-1.93-.93-3s-.69-2-1-3a24.86,24.86,0,0,1-.75-2.61q-1.5,2.2-3.18,4.55c-1.12,1.56-2.12,3-3,4.19a12.08,12.08,0,0,1,2.87-.44c.73,0,1.07,0,1-.09a.26.26,0,0,1,.18.09.69.69,0,0,1,.17.53c0,.17-.3.32-.92.44a18.62,18.62,0,0,0-2.07.53,10.09,10.09,0,0,0-2.08.88,1.7,1.7,0,0,0-.92,1.59,2.4,2.4,0,0,0,.39,1.19,5.26,5.26,0,0,0,1.06,1.23,6.78,6.78,0,0,0,1.63,1A5,5,0,0,0,187.24,89.09Z"/></g></g></svg>